<?xml version="1.0" encoding="UTF-8" standalone="no"?>
<svg
   xmlns:dc="http://purl.org/dc/elements/1.1/"
   xmlns:cc="http://creativecommons.org/ns#"
   xmlns:rdf="http://www.w3.org/1999/02/22-rdf-syntax-ns#"
   xmlns:svg="http://www.w3.org/2000/svg"
   xmlns="http://www.w3.org/2000/svg"
   id="svg3725"
   version="1.1"
   viewBox="0 0 640 512">
  <metadata
     id="metadata3731">
    <rdf:RDF>
      <cc:Work
         rdf:about="">
        <dc:format>image/svg+xml</dc:format>
        <dc:type
           rdf:resource="http://purl.org/dc/dcmitype/StillImage" />
        <dc:title></dc:title>
      </cc:Work>
    </rdf:RDF>
  </metadata>
  <defs
     id="defs3729" />
  <path
     id="path3723"
     d="m 434.7,56.39604 h -85.9 c -8,0 -15.7,3 -21.6,8.4 l -98.3,90 c -0.1,0.1 -0.2,0.3 -0.3,0.4 -16.6,15.6 -16.3,40.5 -2.1,56 12.7,13.9 39.4,17.6 56.1,2.7 0.1,-0.1 0.3,-0.1 0.4,-0.2 l 79.9,-73.2 c 6.5,-5.9 16.7,-5.5 22.6,1 6,6.5 5.5,16.6 -1,22.6 l -26.1,23.9 145.6,118.2 c 2.9,2.4 5.5,5 7.9,7.7 v -193.5 l -54.6,-54.6 c -5.9,-6 -14.1,-9.4 -22.6,-9.4 z m 109.3,64.2 v 223.9 c 0,17.7 14.3,32 32,32 h 64 v -255.9 z m 48,223.9 c -8.8,0 -16,-7.2 -16,-16 0,-8.8 7.2,-16 16,-16 8.8,0 16,7.2 16,16 0,8.8 -7.2,16 -16,16 z m -592,31.9 h 64 c 17.7,0 32,-14.3 32,-32 v -223.8 H 0 Z m 48,-63.9 c 8.8,0 16,7.2 16,16 0,8.8 -7.2,16 -16,16 -8.8,0 -16,-7.2 -16,-16 0,-8.9 7.2,-16 16,-16 z m 435.9,18.6 -149.3,-121.2 -30,27.5 c -29.7,27.1 -75.2,24.5 -101.7,-4.4 -26.9,-29.4 -24.8,-74.9 4.4,-101.7 l 81.8,-74.9 h -83.8 c -8.5,0 -16.6,3.4 -22.6,9.4 l -54.7,54.6 v 223.9 h 18.3 l 90.5,81.9 c 27.4,22.3 67.7,18.1 90,-9.3 l 0.2,-0.2 17.9,15.5 c 15.9,13 39.4,10.5 52.3,-5.4 l 31.4,-38.6 5.4,4.4 c 13.7,11.1 33.9,9.1 45,-4.7 l 9.5,-11.7 c 11.2,-13.8 9.1,-33.9 -4.6,-45.1 z" />
  <path
     id="path3733"
     d="m 270.25743,439.81264 c -5.36522,-0.5792 -11.25767,-2.06488 -16.79208,-4.23383 -9.88819,-3.87518 -11.96316,-5.57315 -60.4098,-49.4339 l -46.36248,-41.97388 -9.34654,-0.0121 L 128,344.14674 V 232.44761 120.74849 l 28.67327,-28.594273 c 15.77029,-15.726851 30.09901,-29.488316 31.84158,-30.581035 1.74258,-1.092719 5.02178,-2.613681 7.28713,-3.379914 4.06574,-1.375204 4.69029,-1.39544 48.47525,-1.570638 l 44.35643,-0.177485 -3.48515,3.127944 c -1.91683,1.720369 -21.02178,19.19826 -42.45544,38.839756 -26.67497,24.444555 -40.32115,37.394045 -43.25184,41.043675 -10.80769,13.45896 -16.2814,30.45193 -15.49977,48.11857 1.47129,33.25448 24.98378,60.80047 57.5893,67.46855 20.06032,4.1025 41.27839,-0.5969 57.55835,-12.74805 1.56832,-1.17057 10.09651,-8.74482 18.95153,-16.83165 8.85502,-8.08684 16.32817,-14.70334 16.607,-14.70334 0.65175,0 145.34513,117.39877 150.16626,121.83926 10.58634,9.75053 13.49025,24.0503 7.45984,36.73463 -2.07198,4.35821 -13.08986,18.46081 -17.35792,22.2177 -8.32516,7.32811 -19.99011,9.65406 -30.58299,6.09815 -4.29378,-1.44138 -7.40324,-3.30757 -14.17072,-8.50481 l -1.67947,-1.28979 -16.15628,19.80886 c -17.71502,21.72001 -19.86818,24.03565 -25.47487,27.39718 -5.85421,3.50992 -10.96028,4.87456 -18.37624,4.9112 -5.25597,0.026 -7.20117,-0.25957 -11.40594,-1.67427 -6.50631,-2.18904 -9.44544,-4.16405 -20.71097,-13.9172 l -9.23573,-7.99585 -4.98704,4.9584 c -10.73142,10.66976 -23.45034,16.75877 -38.57121,18.46543 -6.23985,0.70428 -6.81108,0.70441 -13.30693,0.003 z"
     style="stroke-width:0.63366336" />
  <path
     id="path3735"
     d="m 508.6072,310.02351 c -1.34326,-1.37564 -35.573,-29.39747 -76.06608,-62.27072 l -73.62378,-59.76955 13.81681,-12.66221 c 15.72104,-14.40733 16.96882,-16.09876 16.96882,-23.00223 0,-2.20811 -0.44164,-5.0749 -0.98144,-6.37064 -1.29471,-3.1079 -5.05293,-6.97173 -8.20668,-8.4373 -3.65985,-1.70076 -9.92235,-1.59669 -13.7305,0.22819 -1.99105,0.95411 -16.52091,13.84796 -44.44134,39.43739 -27.47552,25.18167 -42.84525,38.82785 -45.51702,40.41282 -16.47628,9.77413 -39.74679,5.98668 -51.53853,-8.38827 -5.72412,-6.97811 -8.81126,-15.78445 -8.783,-25.05425 0.0343,-11.23657 3.61099,-19.51738 12.2352,-28.32678 8.58778,-8.7722 99.47177,-91.678501 103.05499,-94.00895 1.78211,-1.159044 5.06132,-2.765086 7.28713,-3.568982 l 4.04693,-1.461629 h 48.15842 c 47.91208,0 48.18111,0.0072 52.59406,1.399406 2.4396,0.769674 5.86138,2.294783 7.60396,3.389132 1.74257,1.094349 15.93118,14.722041 31.53023,30.283761 l 28.3619,28.294042 -0.16388,96.18897 -0.1639,96.18897 z"
     style="stroke-width:0.63366336" />
  <path
     id="path3737"
     d="m 510.09901,311.49865 c -1.47706,-1.80224 -14.5583,-12.55562 -71.28713,-58.60133 -78.85515,-64.00521 -79.85396,-64.8206 -79.68068,-65.04846 0.0885,-0.11636 5.36375,-5.02922 11.72278,-10.91747 18.20424,-16.85652 18.85242,-17.69193 18.84545,-24.28905 -0.006,-5.3864 -1.04297,-7.96344 -4.64743,-11.546 -3.64112,-3.61902 -6.54174,-4.79119 -11.85615,-4.79119 -6.43415,0 -3.08768,-2.73772 -57.63149,47.14793 -17.94852,16.41567 -33.81784,30.77441 -35.26516,31.90831 -6.74849,5.28707 -16.443,8.08309 -26.20019,7.55646 -20.28506,-1.09485 -34.65809,-14.19281 -37.41898,-34.09947 -1.43737,-10.36372 2.31191,-22.51372 9.3721,-30.37145 1.65945,-1.8469 19.84094,-18.76783 40.40332,-37.60204 20.56237,-18.83423 42.94653,-39.34939 49.74257,-45.589257 13.09938,-12.027354 16.40747,-14.520728 22.49505,-16.954948 l 3.80198,-1.520286 45.62376,-0.192625 c 29.42694,-0.124242 47.39859,0.04389 50.62315,0.473597 3.40907,0.454297 6.5334,1.398364 9.82178,2.967825 4.60657,2.198594 6.12027,3.59538 33.8219,31.209571 l 28.99951,28.907973 -0.16783,96.25582 c -0.14936,85.66994 -0.27235,96.12829 -1.11831,95.09609 z"
     style="stroke-width:0.63366336" />
  <path
     id="path3739"
     d="m 507.88119,309.4468 c -3.47987,-3.15762 -28.4294,-23.52194 -101.06931,-82.4948 -26.31287,-21.36216 -47.76976,-38.94767 -47.68196,-39.07891 0.0878,-0.13123 5.64818,-5.3227 12.35643,-11.53659 17.45269,-16.16652 18.22197,-17.18083 18.21043,-24.011 -0.0149,-8.80917 -6.9637,-15.97486 -15.51856,-16.0029 -7.3019,-0.0239 -4.60364,-2.1771 -55.1844,44.03651 -19.83472,18.1222 -37.2473,33.8752 -38.69462,35.00668 -6.76242,5.28667 -16.44779,8.07843 -26.20019,7.55206 -22.33796,-1.20566 -37.71928,-17.32822 -37.59313,-39.40478 0.0293,-5.12336 0.35819,-7.28636 1.71784,-11.29684 1.91431,-5.64656 5.02335,-10.88677 8.85043,-14.91721 2.22827,-2.34668 35.96491,-33.41548 88.80704,-81.78435 13.4331,-12.295942 16.72504,-14.780057 22.81188,-17.213985 l 3.80198,-1.520286 45.62376,-0.192625 c 29.42694,-0.124242 47.39859,0.04389 50.62315,0.473597 3.40076,0.453188 6.54141,1.400641 9.82178,2.962973 4.61085,2.195996 6.09447,3.5651 33.81993,31.209571 l 28.99753,28.912825 -0.16585,96.08749 -0.16585,96.08749 z"
     style="stroke-width:0.63366336" />
  <path
     id="path3741"
     d="m 505.70085,307.63274 c -2.94177,-2.54408 -37.20096,-30.50765 -76.13154,-62.14129 l -70.78288,-57.5157 4.19127,-3.81549 c 14.34115,-13.05539 22.84266,-21.40137 24.45766,-24.0102 4.50232,-7.27296 1.91542,-17.22509 -5.62622,-21.64479 -3.45311,-2.02365 -9.16147,-2.73435 -12.66782,-1.57715 -3.90558,1.28896 -4.67894,1.96478 -58.59657,51.20642 -27.19073,24.83262 -31.29838,28.35036 -35.64484,30.52584 -9.90868,4.95945 -21.12306,5.74879 -32.07495,2.25767 -26.45317,-8.43246 -35.24652,-42.18667 -16.38273,-62.88681 2.67711,-2.93773 33.9751,-31.81428 93.8746,-86.611798 8.73054,-7.986911 12.71856,-10.884458 18.17618,-13.206132 l 3.36838,-1.432911 46.57425,-0.182313 c 31.2095,-0.122169 48.03589,0.04436 51.00482,0.504784 2.55035,0.395511 6.44955,1.648543 9.18812,2.952661 4.5273,2.155916 6.16096,3.664865 33.75509,31.178384 l 28.99753,28.912825 -0.16585,96.05579 -0.16585,96.0558 z"
     style="stroke-width:0.63366336;fill:#ff2a2a" />
  <path
     id="path3743"
     d="m 272.15842,440.05897 c -10.38636,-1.17312 -19.63251,-4.14305 -27.53736,-8.8452 -3.98627,-2.3712 -13.90591,-10.97685 -43.62296,-37.84451 -21.1549,-19.12648 -42.06751,-38.02602 -46.47248,-41.99897 l -8.00903,-7.22355 H 137.25829 128 V 232.43577 120.7248 l 29.30693,-29.196467 c 27.99555,-27.890035 29.52272,-29.299483 34.12933,-31.498605 3.31319,-1.581666 6.38699,-2.506992 9.82178,-2.956723 3.12808,-0.409572 20.34693,-0.586843 46.00201,-0.473598 l 41.00263,0.180992 -38.06288,34.851485 c -43.98181,40.271036 -49.82102,45.909866 -53.92416,52.073796 -24.10768,36.21561 -11.92659,84.74601 26.2158,104.44578 11.34222,5.85803 20.7509,8.14502 33.50856,8.14502 12.73213,0 22.22557,-2.30209 33.38085,-8.09462 7.70718,-4.00206 10.62626,-6.32626 29.10689,-23.17523 14.66849,-13.37339 16.24755,-14.638 17.22655,-13.79609 0.59278,0.50978 9.48967,7.72856 19.77086,16.04174 70.93259,57.35478 126.91904,102.96248 129.77255,105.71535 10.17909,9.82005 12.89033,23.51728 7.15763,36.16048 -1.89846,4.18696 -13.09384,18.52606 -17.47611,22.38349 -9.19677,8.09532 -22.35224,10.01837 -34.0181,4.97271 -1.8756,-0.81123 -7.2233,-4.51001 -11.69293,-8.08751 -0.48402,-0.38742 -5.88486,5.78167 -16.84721,19.24366 -8.87414,10.89763 -17.7909,21.32745 -19.81501,23.17738 -9.47046,8.65547 -23.31158,11.55978 -35.49666,7.44835 -6.65947,-2.247 -9.19763,-3.94299 -20.38983,-13.62445 l -9.39235,-8.12455 -5.09289,4.87772 c -6.09947,5.84176 -11.34492,9.49967 -18.28886,12.75371 -9.85872,4.61996 -22.39732,6.94637 -31.74696,5.89035 z"
     style="fill:#00ff00;stroke-width:0.63366336" />
  <path
     id="path3745"
     d="m 571.53306,375.7913 c -11.44337,-1.68481 -20.83411,-9.31987 -25.40675,-20.65673 l -1.49265,-3.70071 -0.16679,-115.16831 -0.1668,-115.16832 H 592.15004 640 V 248.7804 376.46357 l -32.47525,-0.0773 c -17.86138,-0.0425 -34.05765,-0.31025 -35.99169,-0.595 z m 27.61429,-32.77218 c 7.1711,-3.69379 10.56294,-11.52532 8.31648,-19.2022 -3.27147,-11.1797 -17.26988,-15.17194 -26.06212,-7.4327 C 577.58378,319.7449 576,323.26229 576,328.3808 c 0,7.07081 4.05563,13.06953 10.43187,15.4299 3.40011,1.25866 9.4686,0.88088 12.71548,-0.79158 z"
     style="fill:#d40000;stroke-width:0.63366336" />
  <path
     id="path3747"
     d="M 0,248.46357 V 121.09723 h 47.841584 47.841584 l -0.0094,113.26733 c -0.01033,124.56804 0.212227,117.38032 -3.871252,125.04171 -3.605114,6.76389 -10.104472,12.27436 -17.596407,14.91908 l -4.186329,1.47783 -35.009901,0.0134 L 0,375.8299 Z m 53.308747,95.34865 C 59.862957,341.57898 64,335.6077 64,328.3808 c 0,-5.11851 -1.583785,-8.6359 -5.401712,-11.99658 -10.862586,-9.56163 -28.207947,-0.78846 -26.731138,13.52044 1.092879,10.58898 11.455229,17.31026 21.441597,13.90756 z"
     style="fill:#008000;stroke-width:0.63366336" />
  <path
     id="path3749"
     d="m 265.90129,438.88394 c -10.21227,-2.1198 -19.62463,-6.32522 -26.37654,-11.78497 -6.03851,-4.88289 -20.26501,-17.55295 -58.52133,-52.11885 l -34.1253,-30.83338 H 137.43906 128 l 0.0356,-111.68317 0.0356,-111.68317 29.65265,-29.229749 c 26.31468,-25.939376 30.10905,-29.446354 33.70695,-31.153949 6.94677,-3.296991 8.18132,-3.369802 53.72465,-3.168538 l 42.06639,0.185898 -32.56144,29.851388 c -42.36132,38.83563 -49.49845,45.54803 -54.27304,51.0432 -6.90521,7.94734 -11.96253,17.99931 -14.91071,29.63666 -1.16885,4.61382 -1.3701,7.14204 -1.34007,16.83509 0.0318,10.28113 0.20119,12.02384 1.71722,17.67163 2.17983,8.12071 7.45944,19.00589 12.3657,25.49482 20.68201,27.35365 58.57648,36.40244 89.3673,21.33997 7.91432,-3.87159 12.99871,-7.78291 29.79512,-22.92082 7.79573,-7.02596 14.97844,-13.34726 15.96159,-14.04733 l 1.78754,-1.27284 4.94931,4.0139 c 2.72211,2.20765 23.91167,19.38324 47.08791,38.16799 84.23656,68.27522 96.4256,78.31612 100.3449,82.66052 1.34415,1.48994 3.48277,4.88436 4.75248,7.54315 2.26758,4.74834 2.308,4.96914 2.27714,12.43812 -0.0395,9.57259 -0.96061,12.09085 -7.76867,21.24007 -11.43336,15.3651 -17.3515,19.82448 -28.63232,21.57476 -8.17567,1.2685 -15.61023,-0.86496 -24.00651,-6.88901 -3.57986,-2.56843 -5.02754,-3.28086 -5.75607,-2.83266 -1.17134,0.72062 -9.25285,10.07696 -21.11801,24.44929 -15.14366,18.34361 -18.29957,21.19497 -26.95,24.3492 -5.74231,2.09384 -14.16082,2.6019 -19.7568,1.19232 -7.26549,-1.8301 -12.35718,-4.87122 -22.09824,-13.19863 -5.00947,-4.28248 -9.57631,-8.13317 -10.14852,-8.5571 -0.88617,-0.65651 -1.8763,-0.0104 -6.67953,4.35824 -9.547,8.68334 -18.05271,13.45141 -29.39819,16.47987 -6.37338,1.70125 -20.08998,2.14308 -26.32869,0.84808 z"
     style="fill:#008000;stroke-width:0.63366336" />
  <path
     id="path3751"
     d="m 500.59406,303.13021 c -8.95538,-7.44924 -66.21707,-54.1159 -119.95121,-97.75684 l -21.41655,-17.39375 6.20863,-5.69156 c 14.12007,-12.9441 21.24229,-20.29583 22.75459,-23.48786 3.0131,-6.35975 1.31273,-14.15317 -4.09849,-18.78498 -3.05588,-2.61572 -6.24117,-3.71007 -10.79876,-3.71007 -6.33017,0 -5.58576,-0.58893 -47.5893,37.64924 -48.83906,44.46092 -47.79956,43.59547 -55.79812,46.45482 -6.13512,2.19321 -17.19866,2.75153 -23.46285,1.18406 -13.74332,-3.43895 -23.54349,-12.59126 -28.22317,-26.35743 -1.81419,-5.33675 -1.67668,-17.27048 0.26377,-22.89129 1.68795,-4.88941 5.06151,-10.74349 7.93458,-13.76873 6.20616,-6.53487 95.42624,-88.482515 102.25576,-93.920774 2.50477,-1.994517 6.42632,-4.510964 8.71456,-5.592105 l 4.16044,-1.965711 h 48.75768 48.75767 l 5.00091,1.579787 c 2.7505,0.868882 6.25829,2.472963 7.79509,3.564624 1.5368,1.091661 15.52758,14.70947 31.09064,30.261798 l 28.29647,28.276961 -0.41528,95.25987 -0.41528,95.25988 z"
     style="fill:#ff0000;stroke-width:0.63366336" />
  <path
     id="path3753"
     d="m 587.08911,375.84475 c -16.2845,-0.33543 -18.05502,-0.48174 -21.54456,-1.78033 -8.12496,-3.02362 -13.92067,-8.46336 -18.03527,-16.92759 l -2.46428,-5.0693 -0.35245,-115.48515 -0.35244,-115.48515 H 592.17005 640 V 248.7804 376.46357 l -17.58416,-0.12668 c -9.67129,-0.0697 -25.56832,-0.29114 -35.32673,-0.49214 z m 11.83984,-32.59619 c 7.30271,-3.46536 11.04148,-12.17252 8.50537,-19.80802 -2.2682,-6.82892 -8.08675,-10.95933 -15.45467,-10.97078 -4.79491,-0.007 -7.35526,0.97776 -10.93941,4.20946 -3.61335,3.25804 -5.01051,6.49366 -5.02013,11.62593 -0.0132,7.02993 4.0914,13.32286 10.20536,15.64633 2.80337,1.06536 9.79204,0.67865 12.70348,-0.70292 z"
     style="fill:#ff0000;stroke-width:0.63366336" />
</svg>
